PathFileType	4	(X/Y/Z)	/Users/niels/Desktop/University/Third Semester/Perception and Action/Exam/Gymnastics Motion Tracking/Code for Gym Tracking/Analyzed Data/Webcam_Backflip/id1_2_baseline_Sports2D/id1_2_baseline_Sports2D_px_person00.trc
DataRate	CameraRate	NumFrames	NumMarkers	Units	OrigDataRate	OrigDataStartFrame	OrigNumFrames
29.874476987447697	29.874476987447697	7	22	m	29.874476987447697	0	239
Frame#	Time	Hip			RHip			RKnee			RAnkle			RBigToe			RSmallToe			RHeel			LHip			LKnee			LAnkle			LBigToe			LSmallToe			LHeel			Neck			Head			Nose			RShoulder			RElbow			RWrist			LShoulder			LElbow			LWrist		
		X1	Y1	Z1	X2	Y2	Z2	X3	Y3	Z3	X4	Y4	Z4	X5	Y5	Z5	X6	Y6	Z6	X7	Y7	Z7	X8	Y8	Z8	X9	Y9	Z9	X10	Y10	Z10	X11	Y11	Z11	X12	Y12	Z12	X13	Y13	Z13	X14	Y14	Z14	X15	Y15	Z15	X16	Y16	Z16	X17	Y17	Z17	X18	Y18	Z18	X19	Y19	Z19	X20	Y20	Z20	X21	Y21	Z21	X22	Y22	Z22
0	0.0	0.9442922425574829	-0.6004805631127973	0.0	0.9383157466782834	-0.5959993472143714	0.0	0.9413043689386118	-0.7005219642210815	0.0	0.9248753146335166	-0.8080354096842421	0.0	0.9651930760414992	-0.8274461124407364	0.0	0.954743146980765	-0.8304341042974703	0.0	0.9174098580339146	-0.8274477730381387	0.0	0.9562376612658016	-0.5945048456268318	0.0	0.9472792679173342	-0.6990271369272495	0.0	0.9293594609904005	-0.8035547810311959	0.0	0.9741566433269248	-0.8229670479044641	0.0	0.9711700465534207	-0.8214741157199531	0.0	0.9189084253316779	-0.819981134145891	0.0	0.9442909262837729	-0.4377172140897625	0.0	0.9666925148772626	-0.3675346669682787	0.0	0.9666906486528373	-0.41083480461090494	0.0	0.9203989310290089	-0.46011442520613893	0.0	0.9308521597176991	-0.5317903545266977	0.0	0.9771443701357858	-0.5855450574474746	0.0	0.9517561476449854	-0.4645945763015661	0.0	0.9532501250788881	-0.5288051167064699	0.0	0.9771456345443612	-0.5855480939735491	0.0
1	0.033473389355742296	0.9439587359715305	-0.6004833065826461	0.0	0.9387124152698965	-0.5955501844100535	0.0	0.9412456011750173	-0.6998982856085619	0.0	0.9253400398960068	-0.8082848543510903	0.0	0.9681571894649218	-0.8266173643593908	0.0	0.9581270634346544	-0.8296718692237358	0.0	0.9175379986703605	-0.8260735428388895	0.0	0.9549242857243252	-0.5948260053971383	0.0	0.9470382289342894	-0.6987612662285702	0.0	0.9297951366632031	-0.8035492931581664	0.0	0.9742427110088334	-0.823609437031504	0.0	0.9710264193323308	-0.8214599803235069	0.0	0.9183977891409406	-0.8191262844622341	0.0	0.9444309219415482	-0.4366912555149669	0.0	0.9656499567813688	-0.36814111759248225	0.0	0.9668750344468436	-0.4104738032401511	0.0	0.9207839448171886	-0.4596607756651723	0.0	0.9306603053547045	-0.5317666801664992	0.0	0.9779568201151575	-0.5854306179765706	0.0	0.9517503266397319	-0.4636613109834145	0.0	0.9529110843412619	-0.5294854949690279	0.0	0.976599281335591	-0.5865745797518208	0.0
2	0.06694677871148459	0.9436983018733657	-0.6003999295306699	0.0	0.9390248051688002	-0.5950690717089572	0.0	0.9412400164780602	-0.6993164144247608	0.0	0.9256971267405627	-0.8084081397498327	0.0	0.9704871489634437	-0.8258937737048536	0.0	0.9608217718628953	-0.8290089480198068	0.0	0.9176271563998144	-0.8248887968260042	0.0	0.9539012887989037	-0.5949800698697594	0.0	0.9468798128338102	-0.6984157929949912	0.0	0.9301570794056746	-0.8034683436066427	0.0	0.9743188594879305	-0.8240342158891729	0.0	0.9709204707423389	-0.8213987715390013	0.0	0.9179734978209789	-0.8183775653279207	0.0	0.944544139530815	-0.43582237695622006	0.0	0.96480897343398	-0.36854938941119414	0.0	0.9670117908394029	-0.410132750900834	0.0	0.9211543583520794	-0.459181708725475	0.0	0.9305228077278406	-0.5317120368648849	0.0	0.9786271866552475	-0.5853024846878678	0.0	0.9517430948132789	-0.46278193645997373	0.0	0.9526414488316398	-0.5299284753975136	0.0	0.9761791589061576	-0.5873466028543447	0.0
3	0.1004201680672269	0.9435415503768505	-0.600214814664404	0.0	0.9392274691873899	-0.5945761454387686	0.0	0.9412684841313976	-0.698830743166908	0.0	0.92590442771119	-0.8083975155364715	0.0	0.9718898488109656	-0.8253605411372286	0.0	0.9625133632159496	-0.8285121616242307	0.0	0.9176663848943992	-0.8240215495017572	0.0	0.9532992325491985	-0.5949062257656088	0.0	0.9468366326469531	-0.6980227874710719	0.0	0.9304134358049098	-0.8033006487269367	0.0	0.9743758258531182	-0.8241879490759626	0.0	0.9708639449148966	-0.8212949494188289	0.0	0.9176955728464966	-0.8177981783433786	0.0	0.9446203710064699	-0.4351967036258611	0.0	0.9642626301455164	-0.3686981797040258	0.0	0.9670795287538934	-0.40986078674795107	0.0	0.9214972300925153	-0.45870855976181696	0.0	0.9304707663918144	-0.531601419848263	0.0	0.9790906373358773	-0.5851802437434735	0.0	0.9517351972395105	-0.461977450642056	0.0	0.9525154479955766	-0.5300490108724845	0.0	0.9759741984352124	-0.5877361618960595	0.0
4	0.13389355742296918	0.9434734272373967	-0.5999780061868721	0.0	0.939345651433377	-0.5941234440879789	0.0	0.9412806410096317	-0.6984831007379295	0.0	0.9259911756386763	-0.8083258302141774	0.0	0.9724665495202649	-0.82504663263957	0.0	0.9633077312677579	-0.828201704036709	0.0	0.9176739390222703	-0.8235003104859767	0.0	0.9530779352144847	-0.5946462507478735	0.0	0.9468765346978626	-0.6976914452727513	0.0	0.9305690725567114	-0.8030957851426523	0.0	0.974402990968606	-0.8241627986751335	0.0	0.9708386166196984	-0.8211901636271354	0.0	0.9175644807892985	-0.8173971994774673	0.0	0.9446633058112808	-0.4348118021638765	0.0	0.9639679134557495	-0.3686571628814948	0.0	0.9670883083603943	-0.4096929193665816	0.0	0.9218001902508167	-0.4583109023616227	0.0	0.9305071125520324	-0.5314414168255847	0.0	0.9793559539866817	-0.5850983463811416	0.0	0.9517287302051785	-0.4612523605133168	0.0	0.9525849290652479	-0.5299021264126788	0.0	0.9760045443675811	-0.5877489189138808	0.0
5	0.16736694677871147	0.9434557543075122	-0.5997488603351844	0.0	0.9394132072195229	-0.5937656545746611	0.0	0.9412607210788563	-0.6982876110891911	0.0	0.926010112052675	-0.808250655620568	0.0	0.9725235568063231	-0.8249271834064374	0.0	0.9635167063778429	-0.8280531194083539	0.0	0.9176736555537798	-0.8232638686101933	0.0	0.9530994076283497	-0.5942978280850465	0.0	0.9469379919201337	-0.6975091035669538	0.0	0.9306387823666142	-0.8029229237540718	0.0	0.9743858548687543	-0.8240826137857038	0.0	0.970809377245514	-0.8211168004353748	0.0	0.9175258018524631	-0.8171483355359711	0.0	0.944682993627012	-0.4346106198036152	0.0	0.9638206262269307	-0.3685431216551917	0.0	0.9670667811857261	-0.4096223898898094	0.0	0.9220474603559776	-0.45805167417220005	0.0	0.930617916495484	-0.5312794520137797	0.0	0.9794473490869239	-0.5850788985801797	0.0	0.9517282745260742	-0.4606416529246519	0.0	0.9528280367906442	-0.5296021262476323	0.0	0.9762032029573211	-0.5874737097457426	0.0
6	0.2008403361344538	0.9434498160803098	-0.5995612601557029	0.0	0.9394338287942553	-0.5935431266829038	0.0	0.9412228860840276	-0.6982380729831006	0.0	0.9260007345126435	-0.8081907827039979	0.0	0.9723603565200483	-0.8249615072064516	0.0	0.9634543012015868	-0.8280186613828011	0.0	0.917681921757201	-0.8232141658910928	0.0	0.9531909685479615	-0.5939723335540885	0.0	0.9469720577613667	-0.6975008004451949	0.0	0.9306370589987312	-0.8028352266937574	0.0	0.9743217187418116	-0.8240384805145908	0.0	0.9707540800979378	-0.8210842325481171	0.0	0.9175149815244191	-0.8170237267877563	0.0	0.9446935620938495	-0.4345227932433532	0.0	0.9637579291653663	-0.36845177354612013	0.0	0.9670447336381037	-0.4096341354244237	0.0	0.9222200779124292	-0.45794779739427194	0.0	0.9307857340325236	-0.5311642779340825	0.0	0.9793835627849531	-0.5851251044736783	0.0	0.9517416321544097	-0.46021566228364974	0.0	0.9531510673181951	-0.529276135804257	0.0	0.9764476398669333	-0.5870509571510919	0.0
